<svg width="12" height="12" viewBox="0 0 12 12" fill="none" xmlns="http://www.w3.org/2000/svg">
<path d="M5.59744 7.60156V8.56902" stroke="#2BA15C" stroke-width="0.92139" stroke-linecap="round" stroke-linejoin="round"/>
<path d="M3.29398 10.1355H7.90093V9.67481C7.90093 9.16804 7.4863 8.75342 6.97954 8.75342H4.21537C3.7086 8.75342 3.29398 9.16804 3.29398 9.67481V10.1355V10.1355Z" stroke="#2BA15C" stroke-width="0.61426" stroke-miterlimit="10"/>
<path d="M2.83328 10.1353H8.36163" stroke="#2BA15C" stroke-width="0.61426" stroke-linecap="round" stroke-linejoin="round"/>
<path d="M5.52835 7.37112C3.74546 7.37112 2.30348 5.92914 2.30348 4.14625V2.76417C2.30348 1.74603 3.12813 0.921387 4.14626 0.921387H6.91043C7.92857 0.921387 8.75322 1.74603 8.75322 2.76417V4.14625C8.75322 5.92914 7.31124 7.37112 5.52835 7.37112Z" stroke="#2BA15C" stroke-width="0.61426" stroke-linecap="round" stroke-linejoin="round"/>
<path d="M2.52 5.36698C2.17448 5.25641 1.87042 5.05371 1.63086 4.81415C1.21624 4.35345 0.939819 3.80062 0.939819 3.15564C0.939819 2.51067 1.44658 2.00391 2.09156 2.00391H2.39101C2.29887 2.21583 2.2528 2.45078 2.2528 2.69495V4.07704C2.2528 4.53773 2.34955 4.97078 2.52 5.36698Z" stroke="#2BA15C" stroke-width="0.61426" stroke-linecap="round" stroke-linejoin="round"/>
<path d="M8.53668 5.36698C8.8822 5.25641 9.18626 5.05371 9.42582 4.81415C9.84045 4.35345 10.1169 3.80062 10.1169 3.15564C10.1169 2.51067 9.6101 2.00391 8.96513 2.00391H8.66568C8.75782 2.21583 8.80389 2.45078 8.80389 2.69495V4.07704C8.80389 4.53773 8.70714 4.97078 8.53668 5.36698Z" stroke="#2BA15C" stroke-width="0.61426" stroke-linecap="round" stroke-linejoin="round"/>
</svg>
