<svg width="17" height="20" viewBox="0 0 17 20" fill="none" xmlns="http://www.w3.org/2000/svg">
<path d="M5.64301 16.7748L6.21223 16.2865V16.2865L5.64301 16.7748ZM10.857 16.7748L11.4262 17.2632L10.857 16.7748ZM8.25 18.75V18V18.75ZM0.75 8.12696H1.5C1.5 9.12973 2.07797 10.5052 3.02224 12.0311C3.94592 13.5237 5.14142 15.0383 6.21223 16.2865L5.64301 16.7748L5.07379 17.2632C3.9792 15.9873 2.7282 14.4065 1.74672 12.8204C0.785835 11.2677 0 9.58116 0 8.12696H0.75ZM10.857 16.7748L10.2878 16.2865C11.3586 15.0383 12.5541 13.5237 13.4778 12.0311C14.422 10.5052 15 9.12973 15 8.12696H15.75H16.5C16.5 9.58116 15.7142 11.2677 14.7533 12.8204C13.7718 14.4065 12.5208 15.9873 11.4262 17.2632L10.857 16.7748ZM15.75 8.12696H15C15 4.47864 11.9897 1.5 8.25 1.5V0.75V0C12.7946 0 16.5 3.62692 16.5 8.12696H15.75ZM8.25 0.75V1.5C4.51033 1.5 1.5 4.47864 1.5 8.12696H0.75H0C0 3.62692 3.70539 0 8.25 0V0.75ZM5.64301 16.7748L6.21223 16.2865C6.79407 16.9646 7.17091 17.4 7.5071 17.6792C7.8088 17.9297 8.0144 18 8.25 18V18.75V19.5C7.57319 19.5 7.04016 19.2411 6.54889 18.8332C6.09212 18.454 5.62167 17.9018 5.07379 17.2632L5.64301 16.7748ZM10.857 16.7748L11.4262 17.2632C10.8783 17.9018 10.4079 18.454 9.95111 18.8332C9.45984 19.2411 8.92681 19.5 8.25 19.5V18.75V18C8.4856 18 8.6912 17.9297 8.9929 17.6792C9.32909 17.4 9.70593 16.9646 10.2878 16.2865L10.857 16.7748ZM11.0625 8.46228H11.8125C11.8125 10.3583 10.1526 11.783 8.25 11.783V11.033V10.283C9.45395 10.283 10.3125 9.40583 10.3125 8.46228H11.0625ZM8.25 11.033V11.783C6.34735 11.783 4.6875 10.3583 4.6875 8.46228H5.4375H6.1875C6.1875 9.40583 7.04605 10.283 8.25 10.283V11.033ZM5.4375 8.46228H4.6875C4.6875 6.56625 6.34735 5.14152 8.25 5.14152V5.89152V6.64152C7.04605 6.64152 6.1875 7.51872 6.1875 8.46228H5.4375ZM8.25 5.89152V5.14152C10.1526 5.14152 11.8125 6.56625 11.8125 8.46228H11.0625H10.3125C10.3125 7.51872 9.45395 6.64152 8.25 6.64152V5.89152Z" fill="#707D8F"/>
</svg>
