<svg width="24" height="24" viewBox="0 0 24 24" fill="none" xmlns="http://www.w3.org/2000/svg">
<path d="M16.29 15.29L18.59 13L9.00001 13C8.7348 13 8.48044 12.8946 8.29291 12.7071C8.10537 12.5196 8.00001 12.2652 8.00001 12C8.00001 11.7348 8.10537 11.4804 8.29291 11.2929C8.48044 11.1054 8.7348 11 9.00001 11L18.59 11L16.29 8.71C16.1963 8.61704 16.1219 8.50644 16.0711 8.38458C16.0204 8.26272 15.9942 8.13201 15.9942 8C15.9942 7.86799 16.0204 7.73728 16.0711 7.61542C16.1219 7.49356 16.1963 7.38296 16.29 7.29C16.383 7.19627 16.4936 7.12188 16.6154 7.07111C16.7373 7.02034 16.868 6.9942 17 6.9942C17.132 6.9942 17.2627 7.02034 17.3846 7.07111C17.5064 7.12188 17.617 7.19627 17.71 7.29L21.71 11.29C21.8011 11.3851 21.8724 11.4972 21.92 11.62C22.02 11.8635 22.02 12.1365 21.92 12.38C21.8724 12.5028 21.8011 12.6149 21.71 12.71L17.71 16.71C17.6168 16.8032 17.5061 16.8772 17.3843 16.9277C17.2624 16.9781 17.1319 17.0041 17 17.0041C16.8682 17.0041 16.7376 16.9781 16.6158 16.9277C16.4939 16.8772 16.3833 16.8032 16.29 16.71C16.1968 16.6168 16.1228 16.5061 16.0724 16.3842C16.0219 16.2624 15.9959 16.1319 15.9959 16C15.9959 15.8681 16.0219 15.7376 16.0724 15.6158C16.1228 15.4939 16.1968 15.3832 16.29 15.29ZM10 3C10 3.26522 9.89466 3.51957 9.70712 3.70711C9.51958 3.89464 9.26523 4 9.00001 4L5.00001 4C4.73479 4 4.48044 4.10536 4.2929 4.29289C4.10537 4.48043 4.00001 4.73478 4.00001 5L4.00001 19C4.00001 19.2652 4.10537 19.5196 4.2929 19.7071C4.48044 19.8946 4.73479 20 5.00001 20L9.00001 20C9.26523 20 9.51958 20.1054 9.70712 20.2929C9.89466 20.4804 10 20.7348 10 21C10 21.2652 9.89466 21.5196 9.70712 21.7071C9.51958 21.8946 9.26523 22 9.00001 22L5.00001 22C4.20436 22 3.4413 21.6839 2.87869 21.1213C2.31608 20.5587 2.00001 19.7956 2.00001 19L2.00001 5C2.00001 4.20435 2.31608 3.44129 2.87869 2.87868C3.4413 2.31607 4.20436 2 5.00001 2L9.00001 2C9.26523 2 9.51958 2.10536 9.70712 2.29289C9.89466 2.48043 10 2.73478 10 3Z" fill="url(#paint0_linear_869_14771)"/>
<defs>
<linearGradient id="paint0_linear_869_14771" x1="21.995" y1="21.0104" x2="9.52587" y2="-1.62494" gradientUnits="userSpaceOnUse">
<stop stop-color="#1B59A6"/>
<stop offset="1" stop-color="#24A79E"/>
</linearGradient>
</defs>
</svg>
